<?xml version="1.0" standalone="no"?><!DOCTYPE svg PUBLIC "-//W3C//DTD SVG 1.1//EN" "http://www.w3.org/Graphics/SVG/1.1/DTD/svg11.dtd"><svg t="1589295452565" class="icon" viewBox="0 0 1024 1024" version="1.1" xmlns="http://www.w3.org/2000/svg" p-id="4994" xmlns:xlink="http://www.w3.org/1999/xlink" width="200" height="200"><defs><style type="text/css"></style></defs><path fill="#2383ea" d="M511.336296 153.6S379.06963 270.127407 213.333333 270.127407V512c0 297.718519 298.666667 358.4 298.666667 358.4s294.684444-62.767407 298.666667-358.684444V270.032593C647.774815 270.032593 511.336296 153.6 511.336296 153.6z m197.783704 238.838519L500.717037 640.663704c-7.205926 8.533333-17.73037 13.463704-28.918518 13.463703s-21.712593-4.93037-28.918519-13.463703L331.282963 507.733333c-8.817778-10.524444-7.49037-26.263704 3.034074-35.081481 10.524444-8.817778 26.263704-7.49037 35.081482 3.034074l102.4 121.931852 199.205925-237.226667c8.817778-10.524444 24.557037-11.851852 35.081482-3.034074 10.524444 8.912593 11.851852 24.557037 3.034074 35.081482z" p-id="4995"></path></svg>